Coordinates
version=1
nRows=50
nColumns=24
inDegrees=yes

Units are S.I. units (second, meters, Newtons, ...)
If the header above contains a line with 'inDegrees', this indicates whether rotational values are in degrees (yes) or radians (no).

endheader
time	pelvis_tilt	pelvis_list	pelvis_rotation	pelvis_tx	pelvis_ty	pelvis_tz	hip_flexion_r	hip_adduction_r	hip_rotation_r	knee_angle_r	ankle_angle_r	subtalar_angle_r	mtp_angle_r	hip_flexion_l	hip_adduction_l	hip_rotation_l	knee_angle_l	ankle_angle_l	subtalar_angle_l	mtp_angle_l	lumbar_extension	lumbar_bending	lumbar_rotation
1.325000	10.806048	2.534384	-180.250430	0.279911	0.735833	-1.212237	46.655016	-21.337410	-20.737419	-63.734991	21.181288	7.371298	0.000000	48.579633	-27.742665	-16.426812	-63.658123	20.947952	12.727688	0.000000	-9.543369	2.257423	1.559414
1.330000	10.855810	2.530775	-180.295218	0.278931	0.740285	-1.212029	45.979332	-21.088855	-20.974400	-62.486557	20.608437	7.387512	0.000000	47.833113	-27.518062	-16.785693	-62.476687	20.411143	12.574439	0.000000	-9.313276	2.288127	1.511207
1.335000	10.859952	2.479846	-180.306108	0.277900	0.744713	-1.211837	45.247031	-20.892222	-21.195079	-61.221984	20.046951	7.419828	0.000000	47.028932	-27.232686	-17.156379	-61.272501	19.851839	12.417669	0.000000	-9.122499	2.256086	1.432857
1.340000	10.803290	2.433484	-180.299076	0.276963	0.749045	-1.211771	44.476734	-20.692123	-21.430284	-59.994871	19.523354	7.384103	0.000000	46.186800	-26.950666	-17.506119	-60.067253	19.298920	12.193144	0.000000	-9.020035	2.218425	1.293916
1.345000	10.858161	2.417019	-180.383537	0.275852	0.753342	-1.211495	43.814760	-20.433868	-21.647206	-58.720987	18.937988	7.402167	0.000000	45.417468	-26.717981	-17.898066	-58.849231	18.716464	12.162015	0.000000	-8.768538	2.232901	1.318898
1.350000	10.879685	2.402209	-180.445434	0.274751	0.757632	-1.211279	43.119703	-20.168744	-21.855893	-57.451317	18.344876	7.353272	0.000000	44.626030	-26.483997	-18.275045	-57.626666	18.156387	12.024546	0.000000	-8.551941	2.247829	1.303407
1.355000	10.884840	2.351913	-180.492677	0.273619	0.761915	-1.211153	42.402503	-19.945572	-22.077651	-56.178270	17.771230	7.348289	0.000000	43.804960	-26.211355	-18.665953	-56.379418	17.591490	11.900469	0.000000	-8.361018	2.186095	1.300535
1.360000	10.887381	2.329835	-180.539911	0.272598	0.766098	-1.211060	41.679612	-19.673501	-22.274295	-54.875505	17.147520	7.336482	0.000000	43.012503	-25.959199	-18.998361	-55.153568	17.037821	11.806783	0.000000	-8.174348	2.185872	1.218076
1.365000	10.811983	2.245394	-180.541114	0.271497	0.770220	-1.211003	40.881305	-19.495008	-22.477932	-53.608997	16.601835	7.334953	0.000000	42.132978	-25.624676	-19.372006	-53.901356	16.504332	11.660941	0.000000	-8.074612	2.071133	1.144289
1.370000	10.824466	2.195599	-180.586767	0.270297	0.774337	-1.210856	40.155472	-19.257297	-22.661350	-52.295914	16.014950	7.387966	0.000000	41.320891	-25.335800	-19.749960	-52.631975	15.942737	11.533959	0.000000	-7.854858	2.012047	1.143143
1.375000	10.802672	2.173551	-180.647288	0.269108	0.778368	-1.210733	39.403390	-18.987994	-22.871332	-50.989851	15.419305	7.373182	0.000000	40.496138	-25.081206	-20.102064	-51.386885	15.362978	11.387348	0.000000	-7.680730	1.987703	1.151631
1.380000	10.854848	2.150407	-180.726272	0.267958	0.782194	-1.210521	38.751717	-18.727221	-23.056358	-49.706610	14.803980	7.427395	0.000000	39.756316	-24.817636	-20.442773	-50.150689	14.795591	11.213743	0.000000	-7.426311	1.999836	1.116002
1.385000	10.791188	2.087092	-180.744333	0.266736	0.786056	-1.210385	37.963365	-18.523007	-23.254572	-48.426911	14.232217	7.430667	0.000000	38.895084	-24.487178	-20.766559	-48.897340	14.228255	11.062334	0.000000	-7.296985	1.906675	1.122326
1.390000	10.769093	2.033853	-180.802826	0.265543	0.789801	-1.210251	37.224484	-18.292891	-23.441009	-47.132155	13.630061	7.484650	0.000000	38.073650	-24.191850	-21.123738	-47.652731	13.668469	10.937637	0.000000	-7.115642	1.854807	1.091286
1.395000	10.815798	1.979166	-180.882753	0.264378	0.793313	-1.210055	36.584943	-18.050508	-23.579623	-45.854395	13.013486	7.521274	0.000000	37.339848	-23.893008	-21.460752	-46.434104	13.120365	10.803587	0.000000	-6.852059	1.831445	1.067938
1.400000	10.738263	1.931152	-180.900427	0.263228	0.796859	-1.210030	35.809484	-17.833493	-23.783430	-44.614871	12.468535	7.538251	0.000000	36.510562	-23.583724	-21.743005	-45.213378	12.547590	10.667520	0.000000	-6.734186	1.765863	1.029757
1.405000	10.792942	1.922067	-180.982237	0.261978	0.800247	-1.209803	35.162670	-17.552881	-23.955311	-43.331484	11.861974	7.580165	0.000000	35.797607	-23.310747	-22.025667	-43.979334	12.015688	10.516219	0.000000	-6.461653	1.774072	1.034562
1.410000	10.709464	1.882512	-180.992338	0.260784	0.803554	-1.209757	34.389036	-17.337749	-24.171209	-42.114741	11.322565	7.607374	0.000000	34.984395	-23.012553	-22.299400	-42.787137	11.480078	10.402454	0.000000	-6.342986	1.693561	1.020982
1.415000	10.741496	1.895458	-181.043001	0.259491	0.806752	-1.209600	33.701229	-17.044886	-24.372379	-40.818402	10.724315	7.667038	0.000000	34.285638	-22.766228	-22.565004	-41.593710	10.936699	10.281048	0.000000	-6.079285	1.726292	1.009795
1.420000	10.682645	1.841100	-181.034230	0.258380	0.809740	-1.209556	32.971476	-16.843126	-24.544017	-39.615115	10.173158	7.674966	0.000000	33.539075	-22.445879	-22.804665	-40.441525	10.410632	10.160825	0.000000	-5.936821	1.642084	0.936528
1.425000	10.664760	1.824387	-181.047680	0.257113	0.812694	-1.209457	32.267988	-16.604783	-24.753404	-38.400071	9.614118	7.706083	0.000000	32.827583	-22.164917	-23.036490	-39.294109	9.892942	10.047723	0.000000	-5.736633	1.613352	0.911710
1.430000	10.647407	1.799070	-181.080441	0.255912	0.815516	-1.209274	31.609070	-16.380051	-24.923253	-37.237267	9.069127	7.734900	0.000000	32.117082	-21.877551	-23.270449	-38.145869	9.357534	9.903151	0.000000	-5.532668	1.588399	0.921245
1.435000	10.725496	1.795990	-181.167018	0.254729	0.818164	-1.209049	31.055511	-16.114573	-25.092448	-36.051207	8.486898	7.756644	0.000000	31.515926	-21.642128	-23.541783	-37.046161	8.827062	9.784394	0.000000	-5.231392	1.612101	0.928060
1.440000	10.667820	1.780801	-181.183614	0.253583	0.820719	-1.208937	30.372209	-15.879024	-25.244984	-34.925481	7.973938	7.729425	0.000000	30.807505	-21.359127	-23.708310	-35.944549	8.336937	9.609478	0.000000	-5.073845	1.615124	0.853834
1.445000	10.676625	1.757834	-181.179750	0.252191	0.823290	-1.208900	29.704744	-15.647958	-25.435350	-33.740521	7.434709	7.731342	0.000000	30.140565	-21.060616	-23.886511	-34.805287	7.841920	9.490970	0.000000	-4.918500	1.855584	0.056089
1.450000	10.682196	1.743700	-181.183198	0.251099	0.825592	-1.208839	29.097651	-15.421545	-25.604454	-32.633195	6.921664	7.746346	0.000000	29.547729	-20.799367	-24.058478	-33.777976	7.367405	9.362496	0.000000	-4.695856	1.854663	-0.047686
1.455000	10.571152	1.758679	-181.161004	0.250083	0.827711	-1.208703	28.416126	-15.212307	-25.809444	-31.644037	6.497668	7.775733	0.000000	28.885224	-20.565451	-24.178459	-32.816595	6.968215	9.242803	0.000000	-4.565949	1.591132	0.552810
1.460000	10.568219	1.733506	-181.177171	0.248842	0.829848	-1.208642	27.823302	-15.005914	-25.973732	-30.596524	6.029373	7.795189	0.000000	28.274289	-20.303499	-24.359208	-31.799134	6.501444	9.132785	0.000000	-4.413901	1.831147	-0.180245
1.465000	10.537296	1.711677	-181.196471	0.247770	0.831736	-1.208473	27.252802	-14.816439	-26.119714	-29.621713	5.616477	7.781780	0.000000	27.685106	-20.047984	-24.512809	-30.861350	6.094290	8.963587	0.000000	-4.244461	1.759418	-0.075524
1.470000	10.562161	1.702281	-181.228804	0.246607	0.833491	-1.208273	26.724771	-14.606987	-26.249333	-28.620046	5.174900	7.794640	0.000000	27.158294	-19.807696	-24.659928	-29.949047	5.688114	8.770517	0.000000	-4.009780	1.842253	-0.274976
1.475000	10.483344	1.663308	-181.189716	0.245696	0.835119	-1.208213	26.143354	-14.454433	-26.384136	-27.724949	4.757346	7.761875	0.000000	26.589878	-19.532478	-24.743107	-29.074236	5.305837	8.595978	0.000000	-3.900597	1.763449	-0.291364
1.480000	10.475903	1.698068	-181.235589	0.244717	0.836481	-1.208027	25.660956	-14.225656	-26.527334	-26.861415	4.377019	7.790265	0.000000	26.111823	-19.383123	-24.904695	-28.295128	4.995151	8.452154	0.000000	-3.667347	1.535279	0.408849
1.485000	10.470755	1.670925	-181.242637	0.243723	0.837977	-1.207983	25.186719	-14.060322	-26.678322	-26.008233	3.992409	7.749844	0.000000	25.614143	-19.155450	-25.073847	-27.441196	4.572785	8.348064	0.000000	-3.542342	1.779859	-0.328194
1.490000	10.450870	1.690891	-181.265438	0.242917	0.839146	-1.207750	24.743108	-13.856013	-26.741745	-25.221710	3.666809	7.672595	0.000000	25.180091	-18.963908	-25.100735	-26.713654	4.306143	8.016370	0.000000	-3.343763	1.568073	0.275745
1.495000	10.375031	1.750217	-181.279765	0.241968	0.840408	-1.207858	24.211481	-13.591710	-26.872427	-24.415887	3.343360	7.592793	0.000000	24.666053	-18.849857	-25.213813	-25.962190	4.022386	7.910277	0.000000	-3.257366	1.594506	0.279492
1.500000	10.462920	1.676329	-181.279286	0.241178	0.841288	-1.207563	23.923897	-13.531372	-26.985516	-23.713989	3.021702	7.594111	0.000000	24.360033	-18.585943	-25.345115	-25.291862	3.792064	7.844437	0.000000	-2.983500	1.534503	0.241016
1.505000	10.432052	1.652667	-181.263746	0.240489	0.842209	-1.207533	23.509564	-13.385957	-27.046944	-23.004074	2.778821	7.513073	0.000000	23.971632	-18.384269	-25.389902	-24.656135	3.559159	7.660374	0.000000	-2.863332	1.488731	0.182173
1.510000	10.449015	1.654567	-181.286981	0.239774	0.843004	-1.207431	23.198963	-13.231450	-27.101841	-22.390557	2.512326	7.394236	0.000000	23.631145	-18.198728	-25.382689	-24.035233	3.266753	7.284834	0.000000	-2.695192	1.501750	0.192867
1.515000	10.421886	1.727244	-181.367709	0.238918	0.843724	-1.207409	22.838478	-13.001072	-27.197981	-21.787164	2.295426	7.431579	0.000000	23.239164	-18.157860	-25.531136	-23.461325	3.055692	7.181971	0.000000	-2.555777	1.577181	0.283802
1.520000	10.299174	1.633316	-181.308056	0.237954	0.844521	-1.206742	22.382838	-13.054914	-27.406681	-21.257766	2.068450	7.447911	0.000000	22.751727	-17.825060	-25.540020	-22.830703	2.893239	7.008656	0.000000	-2.516509	1.558115	0.195144
1.525000	10.275312	1.603509	-181.325147	0.237211	0.845038	-1.206576	22.075714	-12.983835	-27.497242	-20.760792	1.956524	7.575493	0.000000	22.422924	-17.638418	-25.537227	-22.328400	2.768354	6.750089	0.000000	-2.382763	1.537222	0.211863
1.530000	10.360594	1.542992	-181.280457	0.236879	0.845268	-1.206426	21.941904	-12.972087	-27.575135	-20.348973	1.785949	7.595501	0.000000	22.296125	-17.440311	-25.544755	-21.898523	2.654057	6.674228	0.000000	-2.182886	1.477679	0.115574
1.535000	10.376947	1.524809	-181.274459	0.236246	0.845607	-1.206306	21.699376	-12.889769	-27.644729	-19.871073	1.646652	7.616120	0.000000	22.061522	-17.289980	-25.589283	-21.442533	2.504461	6.491161	0.000000	-2.042793	1.445726	0.123002
1.540000	10.318136	1.571567	-181.321896	0.235583	0.845939	-1.206266	21.417568	-12.745352	-27.692236	-19.485501	1.551086	7.651178	0.000000	21.758258	-17.256622	-25.646290	-21.067795	2.413823	6.363035	0.000000	-1.974779	1.501367	0.160377
1.545000	10.359636	1.599854	-181.340686	0.235088	0.846138	-1.206133	21.289678	-12.659298	-27.771630	-19.209810	1.427195	7.693718	0.000000	21.595591	-17.207304	-25.674834	-20.745638	2.360263	6.363937	0.000000	-1.818436	1.532146	0.188958
1.550000	10.404259	1.565379	-181.325426	0.234779	0.846206	-1.205905	21.198019	-12.668082	-27.876918	-18.963606	1.351786	7.716793	0.000000	21.483511	-17.086584	-25.720223	-20.457001	2.277754	6.304362	0.000000	-1.689333	1.509195	0.160475
1.555000	10.454450	1.563777	-181.337469	0.234405	0.846226	-1.205840	21.108849	-12.616998	-27.914955	-18.715853	1.293428	7.765590	0.000000	21.376762	-17.024272	-25.754569	-20.201448	2.240417	6.293379	0.000000	-1.544723	1.506164	0.148635
1.560000	10.389247	1.612879	-181.376370	0.233783	0.846354	-1.205854	20.869775	-12.506027	-27.990136	-18.440629	1.193390	7.849433	0.000000	21.125358	-17.036601	-25.850858	-19.957650	2.234895	6.303783	0.000000	-1.505387	1.550241	0.189725
1.565000	10.359235	1.634041	-181.372310	0.233281	0.846451	-1.205765	20.706507	-12.469260	-28.144580	-18.257994	1.215068	7.978606	0.000000	20.955025	-17.038256	-26.032782	-19.769306	2.274690	6.516380	0.000000	-1.455674	1.571245	0.149778
1.570000	10.459213	1.621566	-181.329255	0.233226	0.846391	-1.205676	20.729602	-12.460074	-28.202968	-18.094166	1.194128	7.982311	0.000000	20.990725	-16.980894	-26.040204	-19.601754	2.213268	6.578359	0.000000	-1.304934	1.540068	0.114826
